PathFileType	4	(x/y/z)	A01_SLOW_T0029.trc
DataRate	CameraRate	NumFrames	NumMarkers	Units	OrigDataRate	OrigDataStartFrame	OrigNumFrames
240	240	7	48	mm	240	268	357
Frame#	Time	TOP_HEAD			R_AC			L_AC			R_ASIS			L_ASIS			R_PSIS			L_PSIS			SACRAL			L_IC			R_IC			L_GT			R_GT			R_LAT_KNEE			R_MED_KNEE			L_MED_KNEE			L_LAT_KNEE			R_TOE			L_TOE			R_1ST_MET			L_1ST_MET			L_5TH_MET			R_5TH_MET			R_LAT_ANK			R_MED_ANK			L_MED_ANK			L_LAT_ANK			L_HEEL_SUP			R_HEEL_SUP			L_HEEL_LAT			R_HEEL_LAT			L_HEEL_MED			R_HEEL_MED			R_LL_PROX_POST			R_LL_PROX_ANT			R_LL_DIST_ANT			R_LL_DIST_POST			R_THIGH_PROX_POST			R_THIGH_PROX_ANT			R_THIGH_DIST_ANT			R_THIGH_DIST_POST			L_PROS_PROX_ANT			L_PROS_PROX_POST			L_PROS_DIST_POST			L_PROS_DIST_ANT			L_THIGH_PROX_ANT			L_THIGH_PROX_POST			L_THIGH_DIST_POST			L_THIGH_DIST_ANT			
		X1	Y1	Z1	X2	Y2	Z2	X3	Y3	Z3	X4	Y4	Z4	X5	Y5	Z5	X6	Y6	Z6	X7	Y7	Z7	X8	Y8	Z8	X9	Y9	Z9	X10	Y10	Z10	X11	Y11	Z11	X12	Y12	Z12	X13	Y13	Z13	X14	Y14	Z14	X15	Y15	Z15	X16	Y16	Z16	X17	Y17	Z17	X18	Y18	Z18	X19	Y19	Z19	X20	Y20	Z20	X21	Y21	Z21	X22	Y22	Z22	X23	Y23	Z23	X24	Y24	Z24	X25	Y25	Z25	X26	Y26	Z26	X27	Y27	Z27	X28	Y28	Z28	X29	Y29	Z29	X30	Y30	Z30	X31	Y31	Z31	X32	Y32	Z32	X33	Y33	Z33	X34	Y34	Z34	X35	Y35	Z35	X36	Y36	Z36	X37	Y37	Z37	X38	Y38	Z38	X39	Y39	Z39	X40	Y40	Z40	X41	Y41	Z41	X42	Y42	Z42	X43	Y43	Z43	X44	Y44	Z44	X45	Y45	Z45	X46	Y46	Z46	X47	Y47	Z47	X48	Y48	Z48	

268	1.1156	529.88	1762.7	360.27	313.69	1554	588.71	252.6	1568.5	130.38	314	1094.5	557.3	290.28	1047.3	203.65	83.491	1091.7	450.3	86.972	1090	317.3	69.887	1061	382.84	251.28	1164.1	166.32	290.74	1192.8	570.84	233.85	965.41	163.19	257.06	979.45	596.22	277.85	573.64	513.08	301.77	579.53	382.29	381.87	560.08	336.56	337.29	598.55	189.46	445.92	67.807	391.16	201.28	77.686	205.33	358.75	55.623	348.67	134.83	94.314	279.37	80.157	123.64	165	337.08	46.017	485.7	226.53	111.89	466.91	221.1	119.91	364.37	83.862	236.56	294.52	40.128	254.34	237	-44.528	258.76	300.32	119.09	83.591	416.38	-62.475	236.07	268.21	127.74	59.026	449.86	-42.516	220.62	327.24	128.54	57.49	388.85	178.7	401.02	513.37	249.86	388.03	525.71	248.3	314.99	504.58	191.53	320	498.6	223.81	833.26	567.36	292.19	856.35	576.41	301.42	765.99	561.48	236.33	745.72	550.59	328.92	503.97	191.85	282.78	535.77	194.17	243.36	486.86	205.46	291.67	462.1	201.04	339.81	836.9	186.51	270	827.55	169.68	297.84	756.15	175.86	361.13	765.97	190.37
269	1.1198	533.97	1763.3	360.29	318.06	1554.9	588.77	256.05	1569.3	130.6	317.9	1095.1	557.6	294.58	1048.2	203.88	87.422	1092.4	450.21	90.978	1090.6	317.29	73.94	1061.6	382.73	255.44	1164.8	166.43	295.03	1193.6	571.03	238.59	966.28	163.3	260.54	980.02	596.35	279.06	574.09	513.29	303.16	579.87	382.52	388.49	562.36	337.02	344.19	599.8	189.49	446.03	67.694	391.19	216.67	76.809	205.36	358.86	55.634	348.73	149.47	92.5	278.88	95.113	120.69	164.05	337.15	45.988	485.73	226.89	112.26	467.04	221.52	120.44	364.53	96.211	233.85	293.45	52.385	250.83	235.53	-32.798	253.99	298.19	119.37	84.417	416.49	-50.046	230.91	265.98	127.92	59.772	449.95	-30.253	215.88	325.22	128.62	58.328	388.84	179.47	401.7	513.4	250.57	388.56	525.89	248.9	315.52	504.76	192.06	320.65	498.68	226.45	834.09	567.43	295.06	856.81	576.54	303.73	766.39	561.64	238.5	746.47	550.69	337.36	505.13	192.02	290.7	536.15	193.96	252.02	486.61	205.08	300.77	462.66	201.03	345.4	838.43	186.79	275.76	828.68	169.64	303.98	757.47	175.87	367.15	767.63	190.64
270	1.124	538.05	1763.9	360.28	322.41	1555.7	588.83	259.5	1570.1	130.81	321.77	1095.6	557.88	298.87	1049.1	204.11	91.335	1093.1	450.08	94.97	1091.1	317.26	77.976	1062.3	382.59	259.62	1165.5	166.54	299.29	1194.3	571.19	243.32	967.14	163.4	263.97	980.59	596.47	280.25	574.56	513.51	304.54	580.21	382.75	395.02	564.61	337.52	350.97	601.02	189.58	446.14	67.588	391.23	232.17	76.005	205.39	358.97	55.648	348.79	164.22	90.699	278.38	110.2	117.77	163.12	337.22	45.959	485.77	227.25	112.64	467.18	221.96	120.98	364.71	108.64	231.1	292.41	64.735	247.28	234.08	-20.944	249.11	296.1	119.65	85.265	416.6	-37.48	225.64	263.79	128.09	60.531	450.06	-17.851	211.04	323.22	128.67	59.185	388.83	180.23	402.39	513.44	251.26	389.09	526.08	249.48	316.06	504.95	192.6	321.31	498.77	229.07	834.93	567.51	297.89	857.28	576.67	306.02	766.8	561.8	240.65	747.24	550.8	345.71	506.28	192.23	298.54	536.5	193.79	260.63	486.32	204.74	309.81	463.21	201.05	350.92	839.92	187.1	281.47	829.78	169.62	310.04	758.76	175.92	373.08	769.25	190.95
271	1.1282	542.13	1764.5	360.26	326.74	1556.6	588.88	262.94	1570.9	131.02	325.63	1096.1	558.16	303.15	1050	204.33	95.23	1093.9	449.91	98.949	1091.7	317.2	81.998	1062.9	382.41	263.82	1166.1	166.66	303.5	1195.1	571.34	248.04	967.97	163.49	267.34	981.19	596.59	281.43	575.05	513.74	305.93	580.58	382.99	401.45	566.79	338.05	357.63	602.21	189.71	446.24	67.487	391.27	247.77	75.282	205.41	359.09	55.666	348.86	179.1	88.919	277.9	125.4	114.88	162.2	337.3	45.929	485.81	227.62	113.03	467.32	222.4	121.55	364.9	121.13	228.3	291.41	77.174	243.69	232.67	-8.965	244.13	294.05	119.94	86.13	416.73	-24.779	220.29	261.65	128.27	61.303	450.17	-5.3111	206.1	321.26	128.7	60.061	388.83	180.98	403.09	513.48	251.95	389.65	526.28	250.06	316.61	505.16	193.14	321.98	498.87	231.69	835.78	567.58	300.68	857.78	576.8	308.27	767.24	561.96	242.8	748.02	550.92	353.98	507.43	192.46	306.3	536.82	193.66	269.19	486	204.44	318.78	463.75	201.1	356.38	841.38	187.43	287.13	830.87	169.62	316.03	760.01	175.99	378.95	770.82	191.3
272	1.1323	546.22	1765.1	360.21	331.05	1557.4	588.93	266.38	1571.7	131.23	329.47	1096.7	558.42	307.43	1050.8	204.55	99.11	1094.6	449.71	102.92	1092.3	317.1	86.005	1063.6	382.2	268.02	1166.8	166.78	307.67	1195.8	571.47	252.76	968.78	163.56	270.68	981.79	596.7	282.58	575.55	513.97	307.31	580.95	383.25	407.77	568.93	338.62	364.18	603.37	189.89	446.33	67.392	391.31	263.45	74.649	205.44	359.2	55.686	348.93	194.08	87.17	277.42	140.72	112.03	161.31	337.37	45.899	485.86	227.99	113.42	467.47	222.85	122.12	365.1	133.69	225.47	290.44	89.699	240.07	231.28	3.14	239.05	292.04	120.23	87.011	416.86	-11.946	214.86	259.55	128.43	62.084	450.29	7.367	201.07	319.33	128.7	60.952	388.83	181.72	403.81	513.53	252.62	390.22	526.5	250.63	317.18	505.39	193.68	322.67	498.98	234.3	836.64	567.65	303.44	858.29	576.93	310.51	767.69	562.13	244.94	748.82	551.04	362.16	508.58	192.74	313.98	537.11	193.58	277.7	485.65	204.17	327.7	464.28	201.19	361.77	842.79	187.8	292.72	831.93	169.64	321.96	761.24	176.09	384.73	772.36	191.68
273	1.1365	550.3	1765.7	360.15	335.35	1558.2	588.98	269.83	1572.5	131.43	333.29	1097.2	558.67	311.7	1051.6	204.76	102.98	1095.4	449.47	106.88	1092.9	316.98	90	1064.2	381.96	272.24	1167.4	166.9	311.79	1196.5	571.58	257.46	969.56	163.63	273.97	982.41	596.8	283.72	576.06	514.22	308.7	581.33	383.51	413.99	571	339.21	370.61	604.48	190.12	446.42	67.302	391.34	279.22	74.113	205.46	359.32	55.709	349	209.17	85.459	276.95	156.15	109.24	160.43	337.45	45.868	485.9	228.37	113.82	467.63	223.31	122.71	365.31	146.3	222.61	289.51	102.3	236.43	229.94	15.371	233.89	290.08	120.53	87.903	416.99	1.0164	209.35	257.51	128.6	62.871	450.41	20.182	195.96	317.45	128.68	61.856	388.84	182.46	404.54	513.58	253.29	390.81	526.73	251.19	317.77	505.63	194.24	323.37	499.09	236.9	837.51	567.71	306.17	858.81	577.06	312.73	768.15	562.3	247.07	749.62	551.17	370.24	509.71	193.04	321.57	537.36	193.54	286.16	485.27	203.94	336.55	464.81	201.31	367.09	844.16	188.2	298.26	832.97	169.67	327.8	762.43	176.22	390.43	773.84	192.1
274	1.1407	554.38	1766.2	360.06	339.61	1559	589.03	273.27	1573.2	131.64	337.09	1097.8	558.91	315.97	1052.4	204.97	106.83	1096.2	449.21	110.85	1093.5	316.82	93.983	1064.9	381.69	276.46	1168	167.03	315.85	1197.2	571.67	262.14	970.32	163.7	277.24	983.03	596.89	284.85	576.59	514.47	310.09	581.71	383.78	420.1	573	339.84	376.93	605.55	190.4	446.5	67.218	391.38	295.06	73.684	205.49	359.43	55.735	349.07	224.35	83.796	276.5	171.68	106.51	159.58	337.53	45.837	485.95	228.75	114.21	467.8	223.78	123.31	365.53	158.97	219.73	288.61	114.99	232.79	228.65	27.728	228.65	288.17	120.83	88.804	417.13	14.105	203.78	255.54	128.76	63.662	450.55	33.131	190.78	315.6	128.64	62.772	388.86	183.2	405.28	513.64	253.96	391.4	526.97	251.75	318.36	505.9	194.8	324.07	499.21	239.5	838.39	567.78	308.88	859.34	577.19	314.93	768.63	562.47	249.19	750.42	551.3	378.24	510.83	193.38	329.08	537.59	193.55	294.56	484.87	203.75	345.34	465.32	201.46	372.34	845.49	188.62	303.73	833.97	169.73	333.57	763.58	176.39	396.06	775.28	192.56
